<?xml version="1.0" standalone="no"?>
<!DOCTYPE svg PUBLIC "-//W3C//DTD SVG 20010904//EN"
 "http://www.w3.org/TR/2001/REC-SVG-20010904/DTD/svg10.dtd">
<svg version="1.0" xmlns="http://www.w3.org/2000/svg"
 width="94px" height="66px" viewBox="0 0 3508.000000 2481.000000"
 preserveAspectRatio="xMidYMid meet">

<g transform="translate(0.000000,2481.000000) scale(0.100000,-0.100000)"
fill="#000000" stroke="none">
<path d="M17601 19360 c-577 -39 -1138 -251 -1603 -607 -222 -169 -494 -462
-650 -698 -265 -403 -431 -868 -477 -1339 -14 -138 -14 -432 -1 -567 68 -680
367 -1313 846 -1793 797 -797 1976 -1068 3037 -699 321 111 608 270 877 483
117 93 350 322 424 418 27 34 53 62 58 62 4 0 243 -176 530 -391 l522 -392
135 -5 c272 -9 384 57 384 228 0 74 -20 150 -69 266 l-35 80 -797 389 c-438
214 -963 471 -1167 571 -429 211 -517 244 -675 251 -93 4 -121 1 -240 -27
-330 -77 -504 -47 -910 156 -447 224 -784 516 -920 798 -137 284 -40 494 269
578 110 30 387 30 551 0 330 -61 710 -208 955 -369 221 -146 309 -268 410
-564 26 -73 58 -154 72 -178 90 -155 270 -263 678 -411 110 -40 306 -112 435
-160 129 -48 245 -90 256 -94 20 -6 25 1 49 64 143 373 209 845 175 1245 -105
1224 -918 2233 -2083 2585 -326 98 -704 142 -1036 120z m489 -855 c757 -126
1383 -652 1624 -1366 50 -148 47 -187 -19 -215 -68 -28 -100 3 -145 141 -64
198 -192 431 -327 597 -81 100 -256 264 -364 340 -190 136 -473 260 -704 308
-426 89 -858 29 -1253 -175 -353 -182 -644 -482 -817 -840 -307 -635 -237
-1377 183 -1945 70 -95 224 -254 322 -333 213 -172 483 -305 749 -368 269 -65
611 -64 865 1 44 11 88 20 98 20 31 0 78 -54 78 -89 0 -69 -62 -98 -300 -138
-144 -24 -483 -24 -625 0 -226 40 -408 98 -600 194 -621 310 -1039 901 -1124
1593 -16 126 -14 405 5 529 60 414 237 791 513 1095 334 368 775 595 1281 662
132 17 427 11 560 -11z m-1617 -3949 c32 -13 97 -78 97 -96 0 -5 -12 -17 -27
-27 -23 -15 -27 -15 -31 -3 -11 32 -61 71 -88 68 -50 -6 -52 -29 -6 -105 44
-72 50 -104 30 -148 -23 -50 -100 -70 -157 -41 -38 20 -91 82 -91 107 0 12 10
23 26 30 15 5 27 8 28 7 1 -2 8 -16 16 -32 18 -36 65 -66 91 -59 37 10 34 49
-7 111 -29 43 -38 67 -39 98 0 82 75 125 158 90z m2630 -30 c61 -25 139 -139
153 -224 15 -97 -95 -174 -185 -128 -67 35 -138 143 -148 224 -6 53 15 89 71
123 37 22 65 24 109 5z m-2394 -114 l29 -18 -85 -159 c-46 -88 -88 -164 -92
-168 -11 -11 -63 14 -59 27 4 13 172 336 175 336 2 0 16 -8 32 -18z m2119
-187 c29 -66 57 -124 61 -128 5 -5 24 -2 44 6 34 15 35 14 46 -10 7 -14 9 -28
7 -31 -7 -7 -198 -92 -206 -92 -4 0 -12 11 -18 25 -11 24 -9 27 23 42 19 9 35
22 35 29 0 6 -20 54 -44 105 -43 91 -44 93 -55 67 -12 -32 -11 -31 -45 -19
l-25 10 26 65 c20 50 32 67 52 74 31 11 27 17 99 -143z m-1903 -54 c17 -83 32
-151 35 -151 3 0 25 54 50 120 24 66 45 120 46 120 0 0 15 -5 33 -11 23 -8 31
-16 26 -28 -3 -9 -34 -89 -68 -179 -60 -157 -63 -162 -87 -157 -14 4 -30 12
-36 18 -11 12 -64 244 -64 280 0 40 -18 10 -59 -99 -43 -112 -45 -115 -70
-109 -14 4 -29 10 -33 14 -4 4 19 76 52 161 87 224 74 202 112 186 33 -14 33
-14 63 -165z m1615 70 c45 -32 83 -122 88 -209 4 -69 2 -80 -19 -106 -26 -33
-75 -56 -118 -56 -88 0 -182 185 -152 298 24 87 127 124 201 73z m-1138 -57
c25 -8 56 -26 69 -40 l23 -24 -21 -21 -20 -20 -38 25 c-81 55 -182 23 -205
-66 -14 -50 -5 -90 27 -128 40 -48 99 -56 174 -26 11 5 22 -2 33 -19 l17 -26
-43 -19 c-83 -38 -185 -17 -240 48 -82 98 -51 252 62 310 52 26 99 28 162 6z
m804 -19 c32 -21 47 -60 41 -108 -4 -31 -19 -53 -71 -107 -90 -93 -88 -99 20
-85 91 13 100 9 92 -32 -3 -14 -24 -21 -123 -35 -129 -18 -135 -17 -135 34 0
46 17 76 85 148 68 73 76 92 48 122 -23 26 -59 22 -90 -8 -22 -22 -29 -24 -49
-15 -13 6 -24 17 -24 24 0 17 48 63 80 76 33 14 94 7 126 -14z m-452 -11 c43
-6 47 -9 44 -33 -3 -25 -5 -26 -85 -29 l-83 -3 0 -43 c0 -51 8 -56 81 -56 48
0 49 -1 49 -30 l0 -30 -65 0 -65 0 0 -50 0 -50 85 0 85 0 0 -30 0 -30 -120 0
-120 0 0 188 c0 104 3 192 7 195 8 9 126 9 187 1z"/>
<path d="M19004 14445 c-21 -32 -13 -64 31 -132 57 -86 113 -107 144 -52 13
23 12 30 -11 80 -51 112 -127 160 -164 104z"/>
<path d="M18427 14182 c-33 -36 -11 -169 36 -219 26 -29 72 -30 87 -4 35 66
-29 241 -88 241 -10 0 -26 -8 -35 -18z"/>
<path d="M17170 16757 c3 -3 46 -21 96 -40 222 -86 377 -178 525 -315 143
-132 214 -172 369 -211 78 -19 311 -51 370 -51 14 0 -15 14 -65 31 -140 47
-266 119 -454 259 -95 71 -204 147 -241 169 -133 79 -308 135 -460 146 -41 3
-91 8 -110 11 -19 3 -33 4 -30 1z"/>
<path d="M7182 14849 c-1652 -90 -2986 -903 -3420 -2085 -49 -133 -96 -320
-119 -474 -23 -156 -24 -479 0 -605 108 -588 488 -949 1043 -994 670 -53 1220
351 1287 946 6 56 9 104 6 107 -2 2 -35 -3 -74 -12 -101 -22 -321 -21 -405 2
-304 83 -502 342 -529 696 -46 599 282 1181 872 1541 588 360 1445 469 2065
263 716 -238 1122 -848 1027 -1544 -47 -350 -205 -626 -470 -823 -108 -81
-293 -169 -443 -212 -137 -39 -165 -53 -182 -95 -30 -72 16 -125 145 -171 198
-69 354 -166 491 -303 189 -191 306 -423 362 -721 26 -142 23 -471 -7 -638
-70 -395 -228 -738 -479 -1038 -342 -407 -833 -659 -1295 -663 l-138 -1 -30
33 c-16 18 -29 43 -29 56 0 12 201 956 446 2097 245 1141 454 2117 464 2169
48 251 52 534 10 700 -67 264 -228 437 -480 518 -127 41 -179 47 -380 47 -172
-1 -210 -4 -321 -28 -198 -42 -401 -118 -540 -203 -55 -33 -60 -39 -57 -67 3
-30 5 -31 81 -44 120 -20 202 -70 263 -163 59 -89 86 -252 65 -390 -7 -41
-181 -871 -387 -1845 -207 -973 -387 -1826 -400 -1895 -31 -154 -43 -447 -25
-583 63 -474 362 -785 854 -887 196 -41 415 -49 753 -30 1054 61 1896 359
2479 878 389 345 630 811 686 1323 15 132 6 407 -16 519 -40 203 -129 414
-242 573 -78 109 -228 257 -343 339 -127 90 -345 198 -510 252 -132 44 -345
96 -389 96 -15 0 -21 5 -19 16 2 11 39 27 121 50 707 205 1165 648 1284 1241
27 139 25 416 -5 552 -67 297 -214 551 -451 774 -549 516 -1522 786 -2619 726z"/>
<path d="M27665 14581 c-173 -32 -332 -82 -488 -154 -62 -29 -86 -44 -82 -54
3 -8 5 -21 5 -28 0 -8 15 -17 38 -20 97 -17 156 -55 192 -126 31 -59 43 -164
31 -266 -5 -48 -265 -1287 -576 -2753 -312 -1466 -573 -2703 -582 -2750 -23
-125 -20 -316 6 -413 80 -303 317 -452 716 -450 202 1 402 42 625 130 176 69
188 76 183 110 -4 26 -10 30 -66 40 -36 7 -78 24 -101 40 -81 57 -118 189 -98
350 15 129 316 1528 356 1658 19 61 38 110 44 110 17 0 72 -76 112 -155 73
-146 108 -281 194 -740 65 -345 122 -581 178 -735 189 -514 494 -763 986 -805
206 -18 425 7 614 70 411 137 740 493 1007 1090 79 177 162 393 216 561 33
103 36 120 26 156 -22 82 -78 124 -166 124 -100 0 -147 -43 -200 -186 -144
-390 -312 -683 -494 -866 -127 -127 -199 -164 -316 -164 -69 0 -89 4 -146 31
-167 79 -273 244 -499 774 -189 445 -322 677 -486 850 -209 219 -417 315 -709
327 -71 3 -161 1 -200 -5 -38 -5 -72 -8 -74 -6 -6 5 17 90 56 209 148 454 415
801 738 963 105 53 198 80 315 94 162 19 257 -17 317 -119 25 -43 28 -58 28
-133 0 -79 -3 -92 -38 -163 -75 -151 -208 -259 -357 -288 l-60 -12 18 -29 c30
-52 140 -144 216 -182 166 -82 361 -107 555 -71 343 64 554 292 653 705 24 99
25 172 3 305 -55 342 -269 547 -685 657 -423 111 -888 -78 -1368 -555 -96 -95
-132 -125 -128 -107 21 85 439 2070 451 2139 20 112 19 303 -1 394 -49 224
-207 380 -444 442 -101 27 -386 30 -515 6z"/>
<path d="M12921 12249 c-745 -54 -1430 -461 -1861 -1107 -236 -353 -377 -737
-442 -1202 -19 -144 -17 -565 5 -711 101 -673 437 -1172 975 -1447 383 -196
890 -265 1362 -186 1083 181 1916 1063 2085 2207 87 594 -14 1176 -277 1602
-72 116 -163 228 -269 331 -316 307 -716 476 -1219 514 -149 11 -192 11 -359
-1z m404 -533 c31 -14 75 -40 97 -57 53 -43 130 -154 167 -242 167 -402 155
-1195 -29 -1902 -222 -854 -650 -1445 -1045 -1445 -302 0 -488 288 -536 830
-15 169 -7 573 16 760 96 812 386 1543 746 1885 159 151 283 207 440 201 67
-3 99 -9 144 -30z"/>
<path d="M16080 12250 c-178 -19 -374 -72 -573 -157 -106 -46 -108 -47 -105
-77 2 -22 9 -32 23 -34 112 -18 171 -60 214 -152 23 -50 26 -66 25 -170 -1
-112 -11 -162 -332 -1665 -182 -852 -336 -1597 -342 -1654 -37 -319 67 -568
287 -684 275 -144 698 -118 1146 71 106 45 108 46 105 76 -3 28 -7 31 -58 41
-127 26 -190 95 -209 227 -14 97 0 187 99 648 312 1455 516 2103 772 2452 161
219 386 297 537 188 140 -102 100 -339 -69 -415 -22 -10 -40 -25 -40 -33 0 -8
33 -48 74 -88 128 -126 290 -188 491 -186 285 1 534 145 672 390 l30 53 7
-103 c34 -489 239 -801 836 -1273 234 -186 447 -383 531 -495 60 -79 133 -223
155 -305 42 -161 26 -349 -41 -483 -117 -231 -406 -370 -694 -333 -242 31
-400 148 -447 331 -51 200 65 396 270 455 59 17 219 18 257 1 14 -6 20 3 33
41 72 223 -36 500 -258 657 -140 100 -270 144 -443 153 -281 14 -510 -80 -659
-270 -185 -236 -249 -600 -164 -932 25 -100 113 -279 179 -366 200 -263 552
-463 955 -544 189 -37 305 -48 521 -48 401 1 720 71 1035 230 176 89 304 178
424 299 306 304 434 693 370 1121 -69 466 -353 847 -979 1313 -508 377 -652
534 -685 743 -35 225 113 429 347 477 94 20 227 9 301 -25 77 -34 149 -110
175 -181 38 -108 16 -258 -54 -353 -32 -45 -108 -99 -151 -108 -24 -5 -27 -9
-22 -32 3 -14 22 -60 42 -101 92 -192 297 -300 547 -287 182 10 315 67 436
188 61 60 85 93 117 160 54 113 67 174 66 304 -3 407 -310 732 -824 870 -397
106 -870 93 -1262 -35 -231 -76 -425 -189 -577 -335 -99 -96 -157 -170 -218
-281 l-41 -77 -7 69 c-40 419 -313 680 -755 724 -203 21 -427 -18 -605 -104
-208 -101 -377 -260 -537 -505 l-68 -105 0 100 c-1 388 -227 597 -665 617 -60
3 -148 1 -195 -3z"/>
<path d="M24112 12249 c-557 -40 -1088 -279 -1503 -676 -222 -213 -394 -450
-534 -738 -193 -393 -285 -796 -285 -1240 0 -1119 639 -1883 1685 -2016 120
-15 436 -15 560 0 762 95 1418 521 1827 1187 442 719 529 1686 217 2407 -148
342 -420 647 -737 825 -263 149 -538 227 -877 252 -155 11 -189 11 -353 -1z
m370 -518 c107 -33 218 -145 285 -288 187 -401 169 -1286 -41 -2017 -260 -903
-716 -1447 -1126 -1342 -243 62 -386 332 -431 809 -15 162 -7 580 15 767 96
811 386 1542 750 1888 109 103 193 155 306 188 51 15 184 12 242 -5z"/>
<path d="M31134 10286 c-217 -101 -142 -427 98 -426 170 1 276 178 198 330
-24 46 -55 74 -110 99 -60 27 -123 26 -186 -3z"/>
<path d="M12838 6698 c-148 -14 -218 -96 -218 -255 l0 -63 -80 0 -80 0 0 -70
0 -70 80 0 80 0 0 -390 0 -390 80 0 80 0 0 390 0 390 205 0 205 0 0 -390 0
-390 80 0 80 0 0 390 0 390 135 0 135 0 0 70 0 70 -136 0 -137 0 7 38 c3 20 6
47 6 59 0 13 13 37 28 54 24 27 36 32 92 36 42 3 86 0 123 -10 43 -12 59 -12
63 -4 18 51 32 113 26 118 -28 25 -244 41 -317 23 -117 -28 -170 -97 -182
-239 l-6 -75 -205 0 -205 0 6 58 c9 106 53 139 171 129 39 -4 81 -9 92 -12 19
-6 24 0 38 41 22 64 20 73 -10 84 -42 16 -164 26 -236 18z"/>
<path d="M16860 6704 c-107 -21 -176 -71 -206 -150 -30 -78 0 -197 75 -303
l20 -28 -64 -42 c-89 -58 -175 -147 -215 -222 -29 -54 -35 -77 -38 -145 -6
-104 14 -166 73 -232 89 -99 229 -148 400 -139 128 6 216 35 315 102 l75 51
60 -49 c58 -46 164 -113 169 -106 1 2 21 27 44 55 23 29 42 54 42 57 0 3 -27
22 -60 42 -33 20 -82 54 -110 76 l-49 39 54 81 c55 80 115 189 115 209 0 5
-26 23 -58 39 l-58 29 -42 -91 c-24 -51 -58 -110 -77 -132 l-35 -40 -102 105
c-96 97 -228 260 -228 280 0 4 21 21 47 36 65 38 139 109 171 164 40 67 38
152 -3 212 -42 60 -117 96 -215 102 -41 2 -86 2 -100 0z m149 -138 c52 -28 67
-103 30 -162 -11 -19 -50 -55 -86 -81 -63 -45 -66 -46 -80 -27 -34 44 -65 127
-66 176 -1 45 3 54 31 79 27 25 41 29 88 29 30 0 67 -6 83 -14z m-57 -606 c42
-52 113 -133 158 -180 l81 -85 -28 -23 c-147 -121 -409 -122 -517 -2 -107 118
-54 283 135 419 l44 33 25 -33 c14 -19 60 -76 102 -129z"/>
<path d="M19464 6681 c-87 -53 -47 -181 57 -181 46 0 94 22 109 49 14 26 12
82 -3 101 -40 51 -109 64 -163 31z"/>
<path d="M18430 6070 l0 -610 80 0 80 0 0 205 0 205 53 0 52 -1 160 -204 160
-204 98 -1 c57 0 97 4 95 9 -8 25 -316 411 -338 425 -14 8 -38 26 -54 39 l-29
24 46 31 c26 18 102 101 178 194 73 90 139 171 147 181 14 16 10 17 -79 17
l-94 0 -152 -194 c-139 -177 -156 -195 -198 -209 l-45 -16 0 360 0 359 -80 0
-80 0 0 -610z"/>
<path d="M21570 6070 l0 -610 80 0 80 0 0 300 c0 300 0 301 25 349 48 96 143
151 260 151 86 0 141 -30 175 -95 l25 -49 3 -328 3 -328 80 0 79 0 0 323 c0
191 -4 348 -11 382 -32 175 -129 242 -334 233 -106 -4 -177 -32 -248 -97 -24
-23 -47 -41 -51 -41 -3 0 -6 95 -6 210 l0 210 -80 0 -80 0 0 -610z"/>
<path d="M20063 6582 l-63 -15 0 -93 0 -93 -77 -3 -78 -3 0 -65 0 -65 77 -3
77 -3 3 -322 c3 -283 5 -327 21 -362 42 -92 101 -120 240 -112 56 3 117 14
155 27 34 12 62 23 62 24 0 17 -33 106 -39 106 -5 0 -41 -7 -80 -16 -115 -26
-167 -4 -190 81 -7 24 -11 146 -11 307 l0 267 138 3 137 3 3 68 3 67 -141 0
-140 0 0 110 c0 125 7 118 -97 92z"/>
<path d="M10805 6380 c-167 -55 -260 -200 -272 -425 -14 -245 73 -423 236
-486 68 -27 226 -37 316 -20 52 10 185 63 185 74 0 3 -11 30 -25 60 l-26 56
-32 -19 c-85 -50 -227 -61 -314 -25 -116 48 -184 197 -170 373 15 193 97 287
260 299 67 4 166 -14 228 -41 14 -6 21 5 38 55 24 71 25 70 -54 95 -32 11 -97
18 -180 20 -110 3 -139 1 -190 -16z"/>
<path d="M11705 6383 c-195 -70 -285 -215 -285 -463 0 -210 70 -355 207 -427
81 -43 153 -57 271 -51 83 4 110 10 164 35 78 37 126 77 168 143 92 143 103
390 24 556 -39 82 -123 164 -199 194 -83 32 -275 39 -350 13z m283 -142 c50
-25 93 -81 123 -160 17 -44 22 -78 23 -161 1 -172 -44 -274 -141 -321 -66 -33
-189 -33 -249 -1 -62 32 -111 96 -135 175 -29 94 -24 268 9 342 36 79 90 126
167 146 53 14 157 4 203 -20z"/>
<path d="M14030 6386 c-205 -57 -313 -245 -296 -513 16 -236 119 -379 306
-422 57 -13 212 -14 276 -2 64 12 152 46 184 70 l25 20 -28 56 c-15 31 -31 55
-35 53 -135 -70 -209 -87 -312 -71 -92 14 -155 46 -191 96 -35 48 -59 124 -59
184 l0 43 324 0 324 0 6 31 c10 49 7 153 -5 211 -38 179 -155 259 -373 257
-55 0 -121 -6 -146 -13z m232 -126 c80 -23 135 -98 140 -191 l3 -54 -253 -3
-253 -2 6 37 c11 61 54 141 91 170 62 46 182 66 266 43z"/>
<path d="M15060 6387 c-198 -57 -299 -215 -300 -468 0 -110 26 -228 65 -294
35 -61 117 -130 183 -156 78 -30 258 -38 356 -15 62 15 158 55 179 75 6 7 -31
99 -48 119 -1 1 -29 -12 -63 -29 -84 -42 -172 -55 -263 -40 -155 25 -224 101
-245 269 l-7 52 330 0 330 0 6 66 c4 36 2 98 -3 137 -17 136 -64 208 -168 259
-63 31 -73 33 -187 35 -75 2 -137 -2 -165 -10z m237 -132 c85 -25 133 -98 133
-202 l0 -43 -250 0 c-284 0 -263 -8 -234 89 40 135 193 203 351 156z"/>
<path d="M20889 6386 c-64 -17 -128 -57 -178 -111 -77 -84 -111 -193 -111
-360 0 -235 66 -367 218 -438 114 -53 317 -50 447 8 29 12 56 28 60 34 3 7 -3
36 -16 65 l-22 54 -66 -31 c-59 -28 -76 -31 -156 -31 -81 0 -96 3 -145 29 -64
35 -112 98 -136 182 -18 63 -15 240 5 305 18 57 71 119 126 147 43 23 62 26
145 25 72 0 110 -6 155 -22 32 -12 60 -22 61 -22 0 0 9 27 19 60 12 39 15 64
9 70 -5 5 -45 19 -88 30 -91 23 -253 26 -327 6z"/>
<path d="M22940 6386 c-204 -57 -313 -246 -296 -513 16 -236 119 -379 306
-422 57 -13 212 -14 276 -2 65 13 158 48 186 71 l23 18 -28 57 c-15 31 -31 55
-35 53 -135 -70 -209 -87 -312 -71 -92 14 -155 46 -191 96 -35 48 -59 124 -59
184 l0 43 325 0 324 0 7 36 c4 20 4 79 1 130 -10 170 -80 273 -215 314 -75 23
-238 26 -312 6z m233 -127 c48 -13 104 -62 122 -106 8 -19 16 -58 17 -86 l3
-52 -253 -3 -253 -2 6 37 c11 61 54 141 91 170 62 47 182 66 267 42z"/>
<path d="M24073 6380 c-58 -20 -101 -47 -150 -93 -17 -16 -35 -27 -40 -24 -5
4 -15 31 -22 62 l-12 55 -55 0 -54 0 0 -460 0 -460 80 0 80 0 0 310 c0 352 1
355 81 423 114 98 307 88 366 -17 35 -64 43 -146 43 -439 l0 -277 80 0 80 0 0
308 c-1 328 -10 424 -49 499 -27 54 -84 100 -145 118 -71 21 -218 19 -283 -5z"/>
<path d="M19450 5920 l0 -460 80 0 80 0 0 460 0 460 -80 0 -80 0 0 -460z"/>
</g>
</svg>
